<svg style="width:25px;height:25px" id="Layer_1" xmlns="http://www.w3.org/2000/svg" xmlns:xlink="http://www.w3.org/1999/xlink" viewBox="0 0 69.38 122.88"><style>.st0{fill:#383838}.st1{fill-rule:evenodd;clip-rule:evenodd;fill:#fcdb33}.st2{fill-rule:evenodd;clip-rule:evenodd;fill:#ff0}</style><g><path class="st0" d="M21.34.41 65.26.0c.81-.04 1.64.18 2.37.66 1.81 1.21 2.3 3.67 1.08 5.48L45.77 40.38h19.45v.01c.88.0 1.77.29 2.51.9 1.68 1.39 1.93 3.87.54 5.56L7 121.44c-1.06 1.29-2.87 1.81-4.51 1.16-2.03-.8-3.02-3.1-2.21-5.13L21.32 64.5 5.55 64.35c-.45.03-.9-.01-1.36-.14-2.1-.6-3.32-2.79-2.72-4.89l16.1-56.04h.01C18.04 1.64 19.54.43 21.34.41z"></path><polygon class="st1" points="65.43,3.95 21.37,4.36 5.27,60.4 27.11,60.61 3.95,118.93 65.22,44.34 38.35,44.34 65.43,3.95"></polygon><polygon class="st2" points="33.9,4.52 21.66,4.75 6.23,60.09 27.24,60.57 3.95,118.93 35.21,55.03 16.58,51.85 33.9,4.52"></polygon></g></svg>
